<svg width="73" height="84" viewBox="0 0 73 84" fill="none" xmlns="http://www.w3.org/2000/svg">
<path d="M40.6285 0H13.1362L10.6404 12.4133H25.8972H38.9396C45.0073 12.4133 49.6362 13.8133 52.8265 16.6133C56.0167 19.3511 57.6118 23.1778 57.6118 28.0933C57.6118 32.8222 56.611 37.0844 54.6092 40.88C52.6075 44.6133 49.6988 47.5689 45.883 49.7467C42.1298 51.8622 37.6885 52.92 32.5591 52.92H17.7339L24.3603 20.0392H9.10706L0 65.3333H32.09C40.1594 65.3333 47.2592 63.7778 53.3895 60.6667C59.5823 57.4933 64.3989 53.0444 67.8393 47.32C71.2798 41.5333 73 34.8444 73 27.2533C73 21.7156 71.6864 16.8933 69.0591 12.7867C66.4944 8.68 62.7725 5.53778 57.8933 3.36C53.0767 1.12 47.3218 0 40.6285 0Z" fill="white"/>
<path d="M30.6519 18.6667H45.9462L35.2496 71.68H68.184L65.6506 84H17.5156L30.6519 18.6667Z" fill="black"/>
</svg>
