<svg width="73" height="86" viewBox="0 0 73 86" fill="none" xmlns="http://www.w3.org/2000/svg">
<path d="M40.6285 0.637543H13.1362L10.6404 13.117H25.8972H38.9396C45.0073 13.117 49.6362 14.5244 52.8265 17.3393C56.0167 20.0917 57.6118 23.9387 57.6118 28.8805C57.6118 33.6345 56.611 37.9195 54.6092 41.7352C52.6075 45.4884 49.6988 48.4597 45.883 50.6491C42.1298 52.7759 37.6885 53.8393 32.5591 53.8393H17.7339L24.3603 20.7835H9.10706L0 66.3188H32.09C40.1594 66.3188 47.2592 64.7549 53.3895 61.6273C59.5823 58.437 64.3989 53.9645 67.8393 48.2095C71.2798 42.392 73 35.6675 73 28.036C73 22.4687 71.6864 17.6208 69.0591 13.4923C66.4944 9.36377 62.7725 6.20481 57.8933 4.01544C53.0767 1.76351 47.3218 0.637543 40.6285 0.637543Z" fill="#960102"/>
<path d="M30.6533 19.4032H45.9477L35.251 72.6988H68.1855L65.6521 85.0844H17.5171L30.6533 19.4032Z" fill="white"/>
</svg>
